# xmcd CD database file
#
# Track frame offsets:
#	150
#	21755
#	39362
#	57965
#	79835
#	107345
#	132830
#
# Disc length: 2132 seconds
#
# Revision: 0
# Processed by: cddbd v1.5.1PL0 Copyright (c) Steve Scherf et al.
# Submitted via: CDex 1.51
#
DISCID=4c085207
DTITLE=松千 - LIVE SWITCH
DYEAR=2005
DGENRE=Blues
TTITLE0=ショー
TTITLE1=眠れぬブルース
TTITLE2=今夜秘密が…
TTITLE3=SUMMERTIME
TTITLE4=フライデー
TTITLE5=melody
TTITLE6=儚い夢
EXTD=YEAR: 2005
EXTT0=
EXTT1=
EXTT2=
EXTT3=
EXTT4=
EXTT5=
EXTT6=
PLAYORDER=
